<?xml version="1.0" encoding="iso-8859-1"?>
<!-- Uploaded to: SVG Repo, www.svgrepo.com, Generator: SVG Repo Mixer Tools -->
<svg height="800px" width="800px" version="1.1" id="Layer_1" xmlns="http://www.w3.org/2000/svg" xmlns:xlink="http://www.w3.org/1999/xlink" 
	 viewBox="0 0 512.001 512.001" xml:space="preserve">
<polygon style="fill:#28549C;" points="319.633,209.609 319.633,244.488 368.134,244.488 368.134,208.367 "/>
<path style="fill:#ACAAB1;" d="M226.916,7.595l4.051,123.614c0,29.64-24.251,53.891-53.891,53.891l0,0
	c-29.64,0-53.891-24.251-53.891-53.891l4.051-123.614C127.236,7.595,226.916,7.595,226.916,7.595z"/>
<path style="fill:#2A8FE7;" d="M177.075,504.405L177.075,504.405c-18.792,0-33.841-15.577-33.193-34.358l8.942-259.19h48.501
	l8.942,259.19C210.916,488.828,195.867,504.405,177.075,504.405z"/>
<polygon style="fill:#28549C;" points="152.825,178.91 152.825,210.857 201.327,210.857 201.327,179.166 "/>
<path style="opacity:0.4;fill:#3E3B43;enable-background:new    ;" d="M231.581,131.209L227.53,7.595h-14.82l4.051,123.614
	c0,20.929-12.099,39.158-29.64,48.073v31.577l8.942,259.19c0.56,16.232-10.609,30.062-25.783,33.519
	c2.382,0.543,4.86,0.839,7.41,0.839l0,0c18.792,0,33.841-15.577,33.193-34.358l-8.942-259.19v-31.577
	C219.482,170.366,231.581,152.138,231.581,131.209z"/>
<path style="fill:#2A8FE7;" d="M343.883,504.31L343.883,504.31c-18.792,0-33.841-15.577-33.193-34.358l8.942-228.808h48.501
	l8.942,228.808C377.723,488.734,362.674,504.31,343.883,504.31z"/>
<path style="fill:#ACAAB1;" d="M368.134,209.609h-48.501V7.501h14.636c0,0,54.265,35.211,54.265,97.925
	S368.134,209.609,368.134,209.609z"/>
<path style="opacity:0.4;fill:#3E3B43;enable-background:new    ;" d="M368.134,241.145v-31.536c0,0,20.398-41.47,20.398-104.184
	S334.268,7.5,334.268,7.5h-14.636v2.443c11.902,8.964,50.847,42.35,50.847,95.482c0,62.714-20.398,104.184-20.398,104.184v31.536
	l8.942,228.808c0.54,15.65-9.823,29.066-24.166,33.107c2.869,0.808,5.894,1.25,9.026,1.25l0,0c18.792,0,33.841-15.577,33.193-34.358
	L368.134,241.145z"/>
<path d="M234.508,7.346C234.373,3.251,231.014,0,226.916,0h-99.68c-4.097,0-7.457,3.251-7.591,7.346l-4.051,123.614
	c-0.002,0.083-0.004,0.166-0.004,0.249c0,22.255,11.884,41.785,29.64,52.579v26.936l-8.937,259.061
	c-0.385,11.161,3.676,21.73,11.436,29.761c7.758,8.032,18.181,12.454,29.349,12.454c11.167,0,21.59-4.423,29.349-12.454
	c7.759-8.031,11.819-18.6,11.436-29.761l-8.937-259.061v-26.936c17.756-10.795,29.64-30.325,29.64-52.579
	c0-0.083-0.001-0.166-0.004-0.249L234.508,7.346z M195.5,488.992c-4.871,5.041-11.414,7.818-18.423,7.818
	s-13.553-2.777-18.423-7.818c-4.87-5.042-7.42-11.677-7.178-18.682l8.689-251.856h33.826l8.689,251.856
	C202.919,477.315,200.37,483.95,195.5,488.992z M193.731,203.262H160.42v-12.878c5.301,1.495,10.883,2.311,16.655,2.311
	s11.355-0.817,16.655-2.311v12.878H193.731z M177.075,177.505c-25.487,0-46.23-20.703-46.296-46.176l3.807-116.138h18.634v75.405
	c0,4.195,3.401,7.595,7.595,7.595s7.595-3.401,7.595-7.595V15.191h17.328v75.405c0,4.195,3.401,7.595,7.595,7.595
	s7.595-3.401,7.595-7.595V15.191h18.635l3.806,116.138C223.306,156.802,202.562,177.505,177.075,177.505z"/>
<path d="M376.012,241.094V211.39c3.875-8.546,20.399-48.372,20.399-105.87c0-66.079-55.368-102.767-57.725-104.296
	C337.455,0.425,336.019,0,334.551,0h-14.636c-4.195,0-7.595,3.401-7.595,7.595v202.108v31.391l-8.937,228.692
	c-0.385,11.16,3.675,21.73,11.435,29.761c7.759,8.031,18.182,12.454,29.349,12.454c11.166,0,21.59-4.423,29.349-12.454
	c7.759-8.031,11.819-18.6,11.434-29.795L376.012,241.094z M327.511,217.338l33.311,0.174v16.132h-33.311V217.338z M327.511,15.191
	h4.639c8.932,6.539,49.071,38.806,49.071,90.329c0,48.834-12.87,84.71-17.765,96.588h-35.945V15.191z M362.589,488.992
	c-4.871,5.041-11.414,7.818-18.423,7.818c-7.009,0-13.553-2.777-18.423-7.818c-4.87-5.042-7.419-11.677-7.179-18.647l8.657-221.51
	h33.893l8.655,221.475C370.01,477.315,367.46,483.95,362.589,488.992z"/>
</svg>