<?xml version="1.0" encoding="utf-8"?>

<!-- Uploaded to: SVG Repo, www.svgrepo.com, Generator: SVG Repo Mixer Tools -->
<svg version="1.1" id="Icons" xmlns="http://www.w3.org/2000/svg" xmlns:xlink="http://www.w3.org/1999/xlink" 
	 viewBox="0 0 32 32" xml:space="preserve">
<style type="text/css">
	.st0{fill:none;stroke:#000000;stroke-width:2;stroke-linecap:round;stroke-linejoin:round;stroke-miterlimit:10;}
</style>
<path class="st0" d="M13,7.9c0,4.3-5,8.1-5,8.1s-5-3.8-5-8.1C3,5.2,5.2,3,8,3S13,5.2,13,7.9z"/>
<ellipse class="st0" cx="8" cy="7.9" rx="1" ry="1"/>
<path class="st0" d="M29,20.9c0,4.3-5,8.1-5,8.1s-5-3.8-5-8.1c0-2.7,2.2-4.9,5-4.9S29,18.2,29,20.9z"/>
<ellipse class="st0" cx="24" cy="20.9" rx="1" ry="1"/>
<path class="st0" d="M12.4,5.6C13.5,5.2,14.7,5,16,5c5,0,9.3,3.4,10.6,8"/>
<path class="st0" d="M20.9,25.8C19.4,26.6,17.8,27,16,27c-5,0-9.3-3.4-10.6-8"/>
</svg>